<svg id="Layer_1" data-name="Layer 1" xmlns="http://www.w3.org/2000/svg" viewBox="0 0 270 270"><title>crosshair</title><path d="M135,220a85,85,0,1,1,85-85A85.1,85.1,0,0,1,135,220Z" style="fill:#fff"/><path d="M135,60a75,75,0,1,1-75,75,75.08,75.08,0,0,1,75-75m0-20a95,95,0,1,0,95,95,95,95,0,0,0-95-95Z"/><path d="M135,90Z" style="fill:#fff"/><polygon points="145 0 125 0 125 100 145 100 145 0 145 0"/><path d="M135,260Z" style="fill:#fff"/><polygon points="145 170 125 170 125 270 145 270 145 170 145 170"/><rect x="170" y="127" width="100" height="20" style="fill:#fff"/><polygon points="270 127 170 127 170 147 270 147 270 127 270 127"/><rect y="127" width="100" height="20" style="fill:#fff"/><polygon points="100 127 0 127 0 147 100 147 100 127 100 127"/></svg>