<svg data-name="Layer 1" xmlns="http://www.w3.org/2000/svg" viewBox="0 0 49.44 49.44"><path d="M48.94 19.74a24.73 24.73 0 1 0-44.72 18.8 24.78 24.78 0 0 0 10.87 9 24.69 24.69 0 0 0 23.45-2.28 24.8 24.8 0 0 0 6.67-6.67 24.77 24.77 0 0 0 3.72-18.8zm-3.11 4.77a48.88 48.88 0 0 0-14.7-.69l-.45-1.09c-.44-1-.91-2.06-1.4-3.06C37.6 16.26 41 11.37 41 11.31a21 21 0 0 1 4.82 13.2zM38.66 8.88c-.05.08-3.06 4.66-11 7.64A107.15 107.15 0 0 0 19.75 4.2a21.08 21.08 0 0 1 18.91 4.68zm-19-4.65h-.06zm-4 1.4a127.22 127.22 0 0 1 7.84 12.16 78.08 78.08 0 0 1-19.44 2.58A21.14 21.14 0 0 1 15.71 5.63zM3.61 24.72v-.67A77.46 77.46 0 0 0 25.3 21c.61 1.18 1.18 2.39 1.71 3.59l-.83.25C14.79 28.57 9 38.82 9 38.82a21 21 0 0 1-5.39-14.1zm21.11 21.11A21 21 0 0 1 11.27 41l.47.37s4-8.83 16.57-13.19h.14a87.8 87.8 0 0 1 4.51 16 21 21 0 0 1-8.24 1.65zm11.8-3.6a91.24 91.24 0 0 0-4.11-15.08 30.6 30.6 0 0 1 13.16.92 21.12 21.12 0 0 1-9.05 14.16z" fill="#262424" fill-rule="evenodd"/></svg>