<svg data-name="Layer 1" xmlns="http://www.w3.org/2000/svg" viewBox="0 0 49.26 40.04"><path d="M49.26 4.74a20.14 20.14 0 0 1-5.81 1.59A10.13 10.13 0 0 0 47.9.74a20.23 20.23 0 0 1-6.42 2.45 10.12 10.12 0 0 0-17.22 9.22A28.69 28.69 0 0 1 3.43 1.85a10.12 10.12 0 0 0 3.13 13.49A10.07 10.07 0 0 1 2 14.08v.13a10.11 10.11 0 0 0 8.11 9.91 10.13 10.13 0 0 1-4.56.17 10.12 10.12 0 0 0 9.44 7 20.28 20.28 0 0 1-12.58 4.35A20.7 20.7 0 0 1 0 35.49 28.61 28.61 0 0 0 15.49 40c18.59 0 28.76-15.4 28.76-28.76V9.93a20.52 20.52 0 0 0 5.01-5.19z" fill="#262424"/></svg>